<mxfile host="app.diagrams.net" agent="Mozilla/5.0 (Windows NT 10.0; Win64; x64) AppleWebKit/537.36 (KHTML, like Gecko) Chrome/132.0.0.0 Safari/537.36 Edg/132.0.0.0" version="26.0.11">
  <diagram name="Page-1" id="4sxNXGf1fZeycoe-Hj7i">
    <mxGraphModel dx="1042" dy="1665" grid="1" gridSize="10" guides="1" tooltips="1" connect="1" arrows="1" fold="1" page="1" pageScale="1" pageWidth="850" pageHeight="1100" math="0" shadow="0">
      <root>
        <mxCell id="0" />
        <mxCell id="1" parent="0" />
        <mxCell id="9pYm1Za6eoE_XLGIfY4h-7" value="" style="html=1;verticalAlign=bottom;endArrow=block;curved=0;rounded=0;exitX=0.5;exitY=0;exitDx=0;exitDy=0;entryX=0.505;entryY=0.985;entryDx=0;entryDy=0;entryPerimeter=0;" parent="1" source="9pYm1Za6eoE_XLGIfY4h-22" target="9pYm1Za6eoE_XLGIfY4h-16" edge="1">
          <mxGeometry width="80" relative="1" as="geometry">
            <mxPoint x="360" y="210" as="sourcePoint" />
            <mxPoint x="360" y="140" as="targetPoint" />
            <mxPoint as="offset" />
          </mxGeometry>
        </mxCell>
        <mxCell id="9pYm1Za6eoE_XLGIfY4h-11" value="" style="html=1;verticalAlign=bottom;endArrow=block;curved=0;rounded=0;" parent="1" source="9pYm1Za6eoE_XLGIfY4h-18" target="9pYm1Za6eoE_XLGIfY4h-16" edge="1">
          <mxGeometry width="80" relative="1" as="geometry">
            <mxPoint x="190" y="210" as="sourcePoint" />
            <mxPoint x="360" y="140" as="targetPoint" />
            <mxPoint as="offset" />
            <Array as="points">
              <mxPoint x="130" y="180" />
              <mxPoint x="360" y="180" />
            </Array>
          </mxGeometry>
        </mxCell>
        <mxCell id="9pYm1Za6eoE_XLGIfY4h-12" value="" style="html=1;verticalAlign=bottom;endArrow=block;curved=0;rounded=0;exitX=0.5;exitY=0;exitDx=0;exitDy=0;entryX=0.5;entryY=0.954;entryDx=0;entryDy=0;entryPerimeter=0;" parent="1" source="9pYm1Za6eoE_XLGIfY4h-27" target="9pYm1Za6eoE_XLGIfY4h-16" edge="1">
          <mxGeometry width="80" relative="1" as="geometry">
            <mxPoint x="530" y="210" as="sourcePoint" />
            <mxPoint x="360" y="140" as="targetPoint" />
            <mxPoint as="offset" />
            <Array as="points">
              <mxPoint x="585" y="180" />
              <mxPoint x="360" y="180" />
            </Array>
          </mxGeometry>
        </mxCell>
        <mxCell id="9pYm1Za6eoE_XLGIfY4h-13" value="Activity" style="swimlane;fontStyle=1;align=center;verticalAlign=top;childLayout=stackLayout;horizontal=1;startSize=26;horizontalStack=0;resizeParent=1;resizeParentMax=0;resizeLast=0;collapsible=1;marginBottom=0;whiteSpace=wrap;html=1;" parent="1" vertex="1">
          <mxGeometry x="255" y="-10" width="210" height="170" as="geometry" />
        </mxCell>
        <mxCell id="9pYm1Za6eoE_XLGIfY4h-14" value="_name : string&lt;div&gt;_description : string&lt;/div&gt;&lt;div&gt;_duration : int&lt;/div&gt;" style="text;strokeColor=none;fillColor=none;align=left;verticalAlign=top;spacingLeft=4;spacingRight=4;overflow=hidden;rotatable=0;points=[[0,0.5],[1,0.5]];portConstraint=eastwest;whiteSpace=wrap;html=1;" parent="9pYm1Za6eoE_XLGIfY4h-13" vertex="1">
          <mxGeometry y="26" width="210" height="54" as="geometry" />
        </mxCell>
        <mxCell id="9pYm1Za6eoE_XLGIfY4h-15" value="" style="line;strokeWidth=1;fillColor=none;align=left;verticalAlign=middle;spacingTop=-1;spacingLeft=3;spacingRight=3;rotatable=0;labelPosition=right;points=[];portConstraint=eastwest;strokeColor=inherit;" parent="9pYm1Za6eoE_XLGIfY4h-13" vertex="1">
          <mxGeometry y="80" width="210" height="8" as="geometry" />
        </mxCell>
        <mxCell id="9pYm1Za6eoE_XLGIfY4h-16" value="Activity()&lt;div&gt;DisplayStartingMessage() : void&lt;/div&gt;&lt;div&gt;DisplayEndingMessage() : void&lt;/div&gt;&lt;div&gt;ShowSpinner(seconds: int) : void&lt;/div&gt;&lt;div&gt;ShowCountDown(seconds: int) : void&lt;/div&gt;" style="text;strokeColor=none;fillColor=none;align=left;verticalAlign=top;spacingLeft=4;spacingRight=4;overflow=hidden;rotatable=0;points=[[0,0.5],[1,0.5]];portConstraint=eastwest;whiteSpace=wrap;html=1;" parent="9pYm1Za6eoE_XLGIfY4h-13" vertex="1">
          <mxGeometry y="88" width="210" height="82" as="geometry" />
        </mxCell>
        <mxCell id="9pYm1Za6eoE_XLGIfY4h-18" value="BreathinActivity" style="swimlane;fontStyle=1;align=center;verticalAlign=top;childLayout=stackLayout;horizontal=1;startSize=26;horizontalStack=0;resizeParent=1;resizeParentMax=0;resizeLast=0;collapsible=1;marginBottom=0;whiteSpace=wrap;html=1;" parent="1" vertex="1">
          <mxGeometry x="50" y="204" width="160" height="110" as="geometry" />
        </mxCell>
        <mxCell id="9pYm1Za6eoE_XLGIfY4h-19" value="&amp;nbsp;" style="text;strokeColor=none;fillColor=none;align=left;verticalAlign=top;spacingLeft=4;spacingRight=4;overflow=hidden;rotatable=0;points=[[0,0.5],[1,0.5]];portConstraint=eastwest;whiteSpace=wrap;html=1;" parent="9pYm1Za6eoE_XLGIfY4h-18" vertex="1">
          <mxGeometry y="26" width="160" height="26" as="geometry" />
        </mxCell>
        <mxCell id="9pYm1Za6eoE_XLGIfY4h-20" value="" style="line;strokeWidth=1;fillColor=none;align=left;verticalAlign=middle;spacingTop=-1;spacingLeft=3;spacingRight=3;rotatable=0;labelPosition=right;points=[];portConstraint=eastwest;strokeColor=inherit;" parent="9pYm1Za6eoE_XLGIfY4h-18" vertex="1">
          <mxGeometry y="52" width="160" height="8" as="geometry" />
        </mxCell>
        <mxCell id="9pYm1Za6eoE_XLGIfY4h-21" value="BreathingActivity()&lt;div&gt;Run(): void&lt;/div&gt;" style="text;strokeColor=none;fillColor=none;align=left;verticalAlign=top;spacingLeft=4;spacingRight=4;overflow=hidden;rotatable=0;points=[[0,0.5],[1,0.5]];portConstraint=eastwest;whiteSpace=wrap;html=1;" parent="9pYm1Za6eoE_XLGIfY4h-18" vertex="1">
          <mxGeometry y="60" width="160" height="50" as="geometry" />
        </mxCell>
        <mxCell id="9pYm1Za6eoE_XLGIfY4h-22" value="ListingActivity" style="swimlane;fontStyle=1;align=center;verticalAlign=top;childLayout=stackLayout;horizontal=1;startSize=26;horizontalStack=0;resizeParent=1;resizeParentMax=0;resizeLast=0;collapsible=1;marginBottom=0;whiteSpace=wrap;html=1;" parent="1" vertex="1">
          <mxGeometry x="265" y="204" width="190" height="160" as="geometry" />
        </mxCell>
        <mxCell id="9pYm1Za6eoE_XLGIfY4h-23" value="_count : int&lt;div&gt;_prompts : List&amp;lt;string&amp;gt;&lt;/div&gt;" style="text;strokeColor=none;fillColor=none;align=left;verticalAlign=top;spacingLeft=4;spacingRight=4;overflow=hidden;rotatable=0;points=[[0,0.5],[1,0.5]];portConstraint=eastwest;whiteSpace=wrap;html=1;" parent="9pYm1Za6eoE_XLGIfY4h-22" vertex="1">
          <mxGeometry y="26" width="190" height="44" as="geometry" />
        </mxCell>
        <mxCell id="9pYm1Za6eoE_XLGIfY4h-24" value="" style="line;strokeWidth=1;fillColor=none;align=left;verticalAlign=middle;spacingTop=-1;spacingLeft=3;spacingRight=3;rotatable=0;labelPosition=right;points=[];portConstraint=eastwest;strokeColor=inherit;" parent="9pYm1Za6eoE_XLGIfY4h-22" vertex="1">
          <mxGeometry y="70" width="190" height="8" as="geometry" />
        </mxCell>
        <mxCell id="9pYm1Za6eoE_XLGIfY4h-25" value="ListingActivity()&lt;div&gt;Run() : void&lt;/div&gt;&lt;div&gt;GetRandomPrompt() : void&lt;/div&gt;&lt;div&gt;GetListFromUser() : List&amp;lt;string&amp;gt;&lt;/div&gt;" style="text;strokeColor=none;fillColor=none;align=left;verticalAlign=top;spacingLeft=4;spacingRight=4;overflow=hidden;rotatable=0;points=[[0,0.5],[1,0.5]];portConstraint=eastwest;whiteSpace=wrap;html=1;" parent="9pYm1Za6eoE_XLGIfY4h-22" vertex="1">
          <mxGeometry y="78" width="190" height="82" as="geometry" />
        </mxCell>
        <mxCell id="9pYm1Za6eoE_XLGIfY4h-27" value="ReflectingActivity" style="swimlane;fontStyle=1;align=center;verticalAlign=top;childLayout=stackLayout;horizontal=1;startSize=26;horizontalStack=0;resizeParent=1;resizeParentMax=0;resizeLast=0;collapsible=1;marginBottom=0;whiteSpace=wrap;html=1;" parent="1" vertex="1">
          <mxGeometry x="490" y="204" width="190" height="180" as="geometry" />
        </mxCell>
        <mxCell id="9pYm1Za6eoE_XLGIfY4h-28" value="_prompts&lt;span style=&quot;white-space: pre;&quot;&gt;&#x9;&lt;/span&gt;: List&amp;lt;string&amp;gt;&lt;div&gt;_questions : List&amp;lt;string&amp;gt;&lt;/div&gt;" style="text;strokeColor=none;fillColor=none;align=left;verticalAlign=top;spacingLeft=4;spacingRight=4;overflow=hidden;rotatable=0;points=[[0,0.5],[1,0.5]];portConstraint=eastwest;whiteSpace=wrap;html=1;" parent="9pYm1Za6eoE_XLGIfY4h-27" vertex="1">
          <mxGeometry y="26" width="190" height="44" as="geometry" />
        </mxCell>
        <mxCell id="9pYm1Za6eoE_XLGIfY4h-29" value="" style="line;strokeWidth=1;fillColor=none;align=left;verticalAlign=middle;spacingTop=-1;spacingLeft=3;spacingRight=3;rotatable=0;labelPosition=right;points=[];portConstraint=eastwest;strokeColor=inherit;" parent="9pYm1Za6eoE_XLGIfY4h-27" vertex="1">
          <mxGeometry y="70" width="190" height="8" as="geometry" />
        </mxCell>
        <mxCell id="9pYm1Za6eoE_XLGIfY4h-30" value="ReflectingActivity()&lt;div&gt;Run() : void&lt;/div&gt;&lt;div&gt;GetRandomPrompt() : string&lt;/div&gt;&lt;div&gt;GetRandomQuestion() : string&lt;/div&gt;&lt;div&gt;DisplayPrompt() : void&lt;/div&gt;&lt;div&gt;DisplayQuestion() : void&lt;/div&gt;" style="text;strokeColor=none;fillColor=none;align=left;verticalAlign=top;spacingLeft=4;spacingRight=4;overflow=hidden;rotatable=0;points=[[0,0.5],[1,0.5]];portConstraint=eastwest;whiteSpace=wrap;html=1;" parent="9pYm1Za6eoE_XLGIfY4h-27" vertex="1">
          <mxGeometry y="78" width="190" height="102" as="geometry" />
        </mxCell>
      </root>
    </mxGraphModel>
  </diagram>
</mxfile>
